PathFileType	4	(X/Y/Z)	Patient4_TMGait_0pt5_02_right_02.trc.trc
DataRate	CameraRate	NumFrames	NumMarkers	Units	OrigDataRate	OrigDataStartFrame	OrigNumFrames
79.096045197740	79.096045197740	5	33	mm	79.096045197740	53	       141
Frame#	Time	Sacral			L.Shoulder			Chest			R.Shoulder			Neck			R.ASIS			L.ASIS			R.Thigh.Superior			R.Thigh.Lateral			R.Thigh.Inferior			R.Patella			L.Thigh.Superior			L.Thigh.Lateral			L.Thigh.Inferior			L.Patella			L.Shank.Superior			L.Shank.Lateral			L.Shank.Inferior			R.Shank.Superior			R.Shank.Lateral			R.Shank.Inferior			R.Heel			R.Midfoot.Superior			R.Midfoot.Lateral			R.Toe			L.Heel			L.Midfoot.Lateral			L.Midfoot.Superior			L.Toe			L.Elbow			L.Wrist			R.Elbow			R.Wrist			
		X1	Y1	Z1	X2	Y2	Z2	X3	Y3	Z3	X4	Y4	Z4	X5	Y5	Z5	X6	Y6	Z6	X7	Y7	Z7	X8	Y8	Z8	X9	Y9	Z9	X10	Y10	Z10	X11	Y11	Z11	X12	Y12	Z12	X13	Y13	Z13	X14	Y14	Z14	X15	Y15	Z15	X16	Y16	Z16	X17	Y17	Z17	X18	Y18	Z18	X19	Y19	Z19	X20	Y20	Z20	X21	Y21	Z21	X22	Y22	Z22	X23	Y23	Z23	X24	Y24	Z24	X25	Y25	Z25	X26	Y26	Z26	X27	Y27	Z27	X28	Y28	Z28	X29	Y29	Z29	X30	Y30	Z30	X31	Y31	Z31	X32	Y32	Z32	X33	Y33	Z33	

53	3.217428571429	525.756231702052	1011.653440299046	532.060920578925	712.736571689242	1437.198724405297	356.467900905162	816.464259798843	1361.810461236349	514.964520146946	738.387822345180	1436.576550925525	692.007208035212	718.056574033884	1495.478026339653	508.658598333662	753.033379434280	938.982139054025	645.871035575955	736.393262665807	964.960765584115	372.463646840826	788.531009944277	737.501309210872	613.512640908067	703.302179858269	631.493236923416	669.271340720859	778.780872494964	577.820946557092	588.040774032796	775.623632713146	489.215564528008	591.247877125804	814.249637695485	777.998218020121	404.008891853999	767.462954701959	652.788552549696	325.713297084393	864.122606774707	588.043267400383	392.541309097484	881.049346260976	505.656839471308	387.365315552471	834.005441320699	433.158867501425	373.873456103160	717.111084051846	351.672648420600	313.628882741792	741.610997943045	223.724558841463	368.595005358011	745.478271779024	401.172912425823	596.949435318979	670.504135472290	298.412675205361	654.681884793129	709.623699035183	203.939497802119	590.482448630676	572.015354767792	42.266657204999	552.906543664092	741.310629373282	96.752246203082	596.687518154634	652.187727982141	36.033259696238	632.035312420118	860.327422564526	45.468701096022	630.043222671467	580.513637322991	96.519323666584	393.557281158707	652.966124052466	81.877874706250	313.729874180957	747.231758806104	123.531428547860	342.152835867445	859.831247284292	50.678871981873	310.855521505476	666.154182379028	1081.396542726170	247.429174826988	786.871178018061	849.613253718186	222.828034592280	732.589743963706	1097.442195517938	826.864773910176	933.684240327224	936.395275056977	798.542565766795	
54	3.230071428571	524.878161033683	1012.168270116187	533.843295377267	711.692886572608	1436.856313474849	356.867091769725	816.713998381340	1361.341065335792	514.433630533608	740.668481659288	1436.589197615239	692.185305310462	718.578945857100	1495.263172410550	508.904536167453	752.797732428440	938.361107805085	645.618639663773	734.176682886736	965.257112902790	372.422838666689	786.730745007039	736.736106793548	612.599027594162	701.521703472839	631.108097518889	669.183931079697	776.026458709953	577.055221430188	587.382091113452	772.350842123897	488.379773521728	590.715537754336	812.459738487682	779.035713993560	403.668868356718	766.376213217402	653.870127071710	325.117129296242	862.724097067493	589.524488091268	392.713960855279	881.373602894811	508.796717577481	387.132908720745	837.620183181352	435.656763522108	373.172345819561	725.437416647101	348.140978819202	312.505463931343	756.826727073147	221.391258700824	367.442502990852	741.602599729550	400.522627093153	596.521315389251	666.205195932867	298.260048621487	654.568155739608	704.333460267382	203.565130965915	590.149926466321	565.682413936127	42.304730800174	552.922516226234	735.014687305610	96.654328585188	596.582790670988	645.855769611458	36.047698291105	632.026637092785	854.012459577106	45.194484932783	630.041700552122	602.880139144913	85.437357676118	392.181133143009	676.258896807851	74.685194208469	312.499564902338	768.071702082954	121.443428272326	341.076784572613	884.605480104810	54.808188186139	310.155371006630	661.857400989313	1081.292657560478	248.538461392299	769.620395728013	843.665286527754	221.509713772947	738.988778751069	1098.644036876882	828.707999655628	948.149577547030	949.861393202027	796.637438282272	
55	3.242714285714	524.078985188819	1012.666488720588	535.462128702940	710.810895520143	1436.527953085442	357.180901908592	817.040171985235	1360.828591306027	513.824678593474	742.960306275987	1436.496560944737	692.261384917523	719.179322740758	1495.011719080947	509.084901754677	752.581336625015	937.737168452600	645.246803999022	732.052940840071	965.423717586817	372.268658665972	784.938028890289	735.953278855100	611.698088557888	699.694945306098	630.719049334940	669.069189164648	773.245130954581	576.265367650859	586.750031223551	769.028096341275	487.540456908435	590.212746269181	810.443873289664	779.816629878232	403.315090941889	765.094253151596	654.779462394205	324.383416365087	861.033062506507	590.767437404441	392.823235722692	881.378178840829	511.780415368813	386.831482406981	840.926261756717	438.167042668586	372.499609340116	733.835321893201	344.829249794215	311.385345449010	771.919383082357	219.700462034261	366.513952169258	737.680668443996	399.881178586181	596.121777081804	661.856824139742	298.109938587425	654.463470633608	699.024194301944	203.195246642022	589.848084583711	559.357711095613	42.354061637710	552.958762414676	728.715356246017	96.550984204571	596.478323826187	639.521404272861	36.056929691562	632.018953013033	847.696301949424	44.904297627407	630.043960226010	625.447931826955	75.525507241465	390.975458337671	699.722120771460	68.501218305392	311.610686410156	788.813279543527	120.186190046444	340.414031478078	908.955332470677	59.757666877046	310.217893896351	657.486215861500	1081.329870843394	249.444867959628	752.411658351868	838.762702337451	220.394690264027	745.306359646881	1099.718955997395	830.129900571507	961.904052775995	964.038303510255	794.164082104827	
56	3.255357142857	523.367421341692	1013.148060820446	536.906371633984	710.120671644706	1436.225066167825	357.395196839743	817.445020182208	1360.281372899434	513.143125234081	745.229475988567	1436.307130831145	692.224961779623	719.864087019162	1494.734805671350	509.188863787765	752.376167175644	937.130173275933	644.778335648788	730.039750018367	965.464898071773	372.011127292864	783.155274988075	735.157086033819	610.847516110675	697.795519601549	630.332873033944	668.933113554068	770.424584312491	575.455686533938	586.164003958998	765.640248233651	486.705816753772	589.746446614714	808.232553781051	780.366172462842	402.961835979803	763.666773073221	655.541468674918	323.512530190401	859.165490632617	591.807199264983	392.799146996810	881.131212884795	514.596980444420	386.430265804144	843.945567061011	440.690251792313	371.852464092032	742.241451376412	341.840585817922	310.283979633240	786.701604925414	218.724182834469	365.828858176921	733.702104322607	399.256855285510	595.755146662793	657.446921255067	297.969678888073	654.369194071955	693.690287391175	202.834403695704	589.581605794693	553.038435589216	42.416245777292	553.012187791487	722.409290043220	96.443308003094	596.374905217462	633.183747091434	36.062677608399	632.013610333030	841.378711440387	44.604344971871	630.051865233227	647.874918639983	67.008573038473	389.975019303769	723.030514430150	63.455223741077	311.107003214036	809.192373235925	119.802063721461	340.186639945265	932.568053278313	65.436571148958	311.091363310016	652.991921497591	1081.538058154026	250.136082306984	735.426582672941	834.912578055376	219.500208892216	751.612146772361	1100.641741599067	831.097789489183	974.890900177377	978.809995790542	791.140071800742	
57	3.268000000000	522.749440459693	1013.613760440163	538.163010043464	709.642400962420	1435.955743794293	357.497240962977	817.928243585707	1359.709167727553	512.393875437388	747.445438014105	1436.035625979579	692.068308264227	720.635882682431	1494.443243130849	509.204583740903	752.175275507435	936.555266731963	644.234005160147	728.160931637725	965.395062086524	371.656900914498	781.380438441772	734.350766432815	610.071135175963	695.799990421465	629.956346706083	668.778456952221	767.550192065660	574.630891030433	585.633987724369	762.172734711203	485.883483315261	589.318923422585	805.877307517887	780.712796138658	402.609675899415	762.141985707532	656.173771788654	322.519164023747	857.234203363867	592.668280579621	392.580871689923	880.690310697036	517.223195150519	385.916398890121	846.695544231830	443.210363615248	371.230238362988	750.566331465081	339.238201364373	309.222942001262	800.993963970990	218.468879515816	365.384862877319	729.656207698323	398.656379749007	595.421049447929	652.963628880233	297.846352497404	654.283375213834	688.325230091466	202.487838018088	589.352431238313	546.721317397572	42.492212725245	553.077503808159	716.093824056858	96.333061669959	596.272833803106	626.842358682389	36.067106422752	632.011107861471	835.059126062775	44.301458597193	630.066393605022	669.820790821532	59.998163920331	389.202744164636	745.855573226999	59.578244743993	311.001599180765	828.961069298416	120.252569604621	340.375492502337	955.171046764108	71.680271280325	312.747330516264	648.338073469439	1081.944801184862	250.600411778125	718.841883636968	832.082960097858	218.831576860214	757.966957852085	1101.400101592664	831.584299363881	987.060498376235	994.045721410365	787.594968383266	
